<svg width="32" height="32" viewBox="0 0 32 32" fill="none" xmlns="http://www.w3.org/2000/svg">
<rect width="32" height="32" rx="6" fill="white"/>
<path d="M25.2741 11.6104L19.9415 16.943C19.691 17.1934 19.3514 17.3341 18.9972 17.3341C18.643 17.3341 18.3033 17.1934 18.0529 16.943C17.8024 16.6925 17.6617 16.3528 17.6617 15.9986C17.6617 15.6445 17.8024 15.3048 18.0529 15.0543L21.1091 12.0003H9.66629V26.6649C9.66629 27.0185 9.52583 27.3576 9.27582 27.6076C9.0258 27.8576 8.68671 27.998 8.33314 27.998C7.97957 27.998 7.64048 27.8576 7.39047 27.6076C7.14046 27.3576 7 27.0185 7 26.6649V10.6672C7 10.3136 7.14046 9.97452 7.39047 9.72451C7.64048 9.4745 7.97957 9.33404 8.33314 9.33404H21.1091L18.0551 6.27781C17.9311 6.1538 17.8327 6.00658 17.7656 5.84456C17.6985 5.68253 17.6639 5.50888 17.6639 5.3335C17.6639 5.15813 17.6985 4.98447 17.7656 4.82245C17.8327 4.66042 17.9311 4.5132 18.0551 4.38919C18.1791 4.26518 18.3263 4.16682 18.4883 4.0997C18.6504 4.03259 18.824 3.99805 18.9994 3.99805C19.1748 3.99805 19.3484 4.03259 19.5105 4.0997C19.6725 4.16682 19.8197 4.26518 19.9437 4.38919L25.2763 9.72176C25.4004 9.84576 25.4989 9.99305 25.566 10.1552C25.6331 10.3173 25.6675 10.4911 25.6673 10.6665C25.6671 10.842 25.6322 11.0157 25.5648 11.1777C25.4973 11.3396 25.3985 11.4867 25.2741 11.6104Z" fill="#2DA902"/>
</svg>
